<mxfile host="Electron" modified="2025-03-16T12:13:21.164Z" agent="Mozilla/5.0 (Windows NT 10.0; Win64; x64) AppleWebKit/537.36 (KHTML, like Gecko) draw.io/21.6.8 Chrome/114.0.5735.289 Electron/25.5.0 Safari/537.36" etag="TM2CKcy2z2f2MaS5wRsu" version="21.6.8" type="device">
  <diagram id="C5RBs43oDa-KdzZeNtuy" name="Page-1">
    <mxGraphModel dx="1658" dy="820" grid="1" gridSize="10" guides="1" tooltips="1" connect="1" arrows="1" fold="1" page="1" pageScale="1" pageWidth="827" pageHeight="1169" math="0" shadow="0">
      <root>
        <mxCell id="WIyWlLk6GJQsqaUBKTNV-0" />
        <mxCell id="WIyWlLk6GJQsqaUBKTNV-1" parent="WIyWlLk6GJQsqaUBKTNV-0" />
        <mxCell id="hANg0IzOi3szDQPyARxN-0" value="USER" style="shape=table;startSize=25;container=1;collapsible=0;childLayout=tableLayout;fixedRows=1;rowLines=1;fontStyle=1;align=center;resizeLast=1;" vertex="1" parent="WIyWlLk6GJQsqaUBKTNV-1">
          <mxGeometry x="353" y="80" width="175" height="157" as="geometry" />
        </mxCell>
        <mxCell id="hANg0IzOi3szDQPyARxN-1" style="shape=tableRow;horizontal=0;startSize=0;swimlaneHead=0;swimlaneBody=0;fillColor=none;collapsible=0;dropTarget=0;points=[[0,0.5],[1,0.5]];portConstraint=eastwest;top=0;left=0;right=0;bottom=0;" vertex="1" parent="hANg0IzOi3szDQPyARxN-0">
          <mxGeometry y="25" width="175" height="22" as="geometry" />
        </mxCell>
        <mxCell id="hANg0IzOi3szDQPyARxN-2" value="Long" style="shape=partialRectangle;connectable=0;fillColor=none;top=0;left=0;bottom=0;right=0;align=left;spacingLeft=2;overflow=hidden;fontSize=11;" vertex="1" parent="hANg0IzOi3szDQPyARxN-1">
          <mxGeometry width="36" height="22" as="geometry">
            <mxRectangle width="36" height="22" as="alternateBounds" />
          </mxGeometry>
        </mxCell>
        <mxCell id="hANg0IzOi3szDQPyARxN-3" value="id" style="shape=partialRectangle;connectable=0;fillColor=none;top=0;left=0;bottom=0;right=0;align=left;spacingLeft=2;overflow=hidden;fontSize=11;" vertex="1" parent="hANg0IzOi3szDQPyARxN-1">
          <mxGeometry x="36" width="139" height="22" as="geometry">
            <mxRectangle width="139" height="22" as="alternateBounds" />
          </mxGeometry>
        </mxCell>
        <mxCell id="hANg0IzOi3szDQPyARxN-4" style="shape=tableRow;horizontal=0;startSize=0;swimlaneHead=0;swimlaneBody=0;fillColor=none;collapsible=0;dropTarget=0;points=[[0,0.5],[1,0.5]];portConstraint=eastwest;top=0;left=0;right=0;bottom=0;" vertex="1" parent="hANg0IzOi3szDQPyARxN-0">
          <mxGeometry y="47" width="175" height="22" as="geometry" />
        </mxCell>
        <mxCell id="hANg0IzOi3szDQPyARxN-5" value="String" style="shape=partialRectangle;connectable=0;fillColor=none;top=0;left=0;bottom=0;right=0;align=left;spacingLeft=2;overflow=hidden;fontSize=11;" vertex="1" parent="hANg0IzOi3szDQPyARxN-4">
          <mxGeometry width="36" height="22" as="geometry">
            <mxRectangle width="36" height="22" as="alternateBounds" />
          </mxGeometry>
        </mxCell>
        <mxCell id="hANg0IzOi3szDQPyARxN-6" value="name" style="shape=partialRectangle;connectable=0;fillColor=none;top=0;left=0;bottom=0;right=0;align=left;spacingLeft=2;overflow=hidden;fontSize=11;" vertex="1" parent="hANg0IzOi3szDQPyARxN-4">
          <mxGeometry x="36" width="139" height="22" as="geometry">
            <mxRectangle width="139" height="22" as="alternateBounds" />
          </mxGeometry>
        </mxCell>
        <mxCell id="hANg0IzOi3szDQPyARxN-7" style="shape=tableRow;horizontal=0;startSize=0;swimlaneHead=0;swimlaneBody=0;fillColor=none;collapsible=0;dropTarget=0;points=[[0,0.5],[1,0.5]];portConstraint=eastwest;top=0;left=0;right=0;bottom=0;" vertex="1" parent="hANg0IzOi3szDQPyARxN-0">
          <mxGeometry y="69" width="175" height="22" as="geometry" />
        </mxCell>
        <mxCell id="hANg0IzOi3szDQPyARxN-8" value="String" style="shape=partialRectangle;connectable=0;fillColor=none;top=0;left=0;bottom=0;right=0;align=left;spacingLeft=2;overflow=hidden;fontSize=11;" vertex="1" parent="hANg0IzOi3szDQPyARxN-7">
          <mxGeometry width="36" height="22" as="geometry">
            <mxRectangle width="36" height="22" as="alternateBounds" />
          </mxGeometry>
        </mxCell>
        <mxCell id="hANg0IzOi3szDQPyARxN-9" value="email" style="shape=partialRectangle;connectable=0;fillColor=none;top=0;left=0;bottom=0;right=0;align=left;spacingLeft=2;overflow=hidden;fontSize=11;" vertex="1" parent="hANg0IzOi3szDQPyARxN-7">
          <mxGeometry x="36" width="139" height="22" as="geometry">
            <mxRectangle width="139" height="22" as="alternateBounds" />
          </mxGeometry>
        </mxCell>
        <mxCell id="hANg0IzOi3szDQPyARxN-10" style="shape=tableRow;horizontal=0;startSize=0;swimlaneHead=0;swimlaneBody=0;fillColor=none;collapsible=0;dropTarget=0;points=[[0,0.5],[1,0.5]];portConstraint=eastwest;top=0;left=0;right=0;bottom=0;" vertex="1" parent="hANg0IzOi3szDQPyARxN-0">
          <mxGeometry y="91" width="175" height="22" as="geometry" />
        </mxCell>
        <mxCell id="hANg0IzOi3szDQPyARxN-11" value="String" style="shape=partialRectangle;connectable=0;fillColor=none;top=0;left=0;bottom=0;right=0;align=left;spacingLeft=2;overflow=hidden;fontSize=11;" vertex="1" parent="hANg0IzOi3szDQPyARxN-10">
          <mxGeometry width="36" height="22" as="geometry">
            <mxRectangle width="36" height="22" as="alternateBounds" />
          </mxGeometry>
        </mxCell>
        <mxCell id="hANg0IzOi3szDQPyARxN-12" value="hashedPassword" style="shape=partialRectangle;connectable=0;fillColor=none;top=0;left=0;bottom=0;right=0;align=left;spacingLeft=2;overflow=hidden;fontSize=11;" vertex="1" parent="hANg0IzOi3szDQPyARxN-10">
          <mxGeometry x="36" width="139" height="22" as="geometry">
            <mxRectangle width="139" height="22" as="alternateBounds" />
          </mxGeometry>
        </mxCell>
        <mxCell id="hANg0IzOi3szDQPyARxN-13" style="shape=tableRow;horizontal=0;startSize=0;swimlaneHead=0;swimlaneBody=0;fillColor=none;collapsible=0;dropTarget=0;points=[[0,0.5],[1,0.5]];portConstraint=eastwest;top=0;left=0;right=0;bottom=0;" vertex="1" parent="hANg0IzOi3szDQPyARxN-0">
          <mxGeometry y="113" width="175" height="22" as="geometry" />
        </mxCell>
        <mxCell id="hANg0IzOi3szDQPyARxN-14" value="String" style="shape=partialRectangle;connectable=0;fillColor=none;top=0;left=0;bottom=0;right=0;align=left;spacingLeft=2;overflow=hidden;fontSize=11;" vertex="1" parent="hANg0IzOi3szDQPyARxN-13">
          <mxGeometry width="36" height="22" as="geometry">
            <mxRectangle width="36" height="22" as="alternateBounds" />
          </mxGeometry>
        </mxCell>
        <mxCell id="hANg0IzOi3szDQPyARxN-15" value="resetPasswordQuestion" style="shape=partialRectangle;connectable=0;fillColor=none;top=0;left=0;bottom=0;right=0;align=left;spacingLeft=2;overflow=hidden;fontSize=11;" vertex="1" parent="hANg0IzOi3szDQPyARxN-13">
          <mxGeometry x="36" width="139" height="22" as="geometry">
            <mxRectangle width="139" height="22" as="alternateBounds" />
          </mxGeometry>
        </mxCell>
        <mxCell id="hANg0IzOi3szDQPyARxN-16" style="shape=tableRow;horizontal=0;startSize=0;swimlaneHead=0;swimlaneBody=0;fillColor=none;collapsible=0;dropTarget=0;points=[[0,0.5],[1,0.5]];portConstraint=eastwest;top=0;left=0;right=0;bottom=0;" vertex="1" parent="hANg0IzOi3szDQPyARxN-0">
          <mxGeometry y="135" width="175" height="22" as="geometry" />
        </mxCell>
        <mxCell id="hANg0IzOi3szDQPyARxN-17" value="String" style="shape=partialRectangle;connectable=0;fillColor=none;top=0;left=0;bottom=0;right=0;align=left;spacingLeft=2;overflow=hidden;fontSize=11;" vertex="1" parent="hANg0IzOi3szDQPyARxN-16">
          <mxGeometry width="36" height="22" as="geometry">
            <mxRectangle width="36" height="22" as="alternateBounds" />
          </mxGeometry>
        </mxCell>
        <mxCell id="hANg0IzOi3szDQPyARxN-18" value="resetPasswordAnswer" style="shape=partialRectangle;connectable=0;fillColor=none;top=0;left=0;bottom=0;right=0;align=left;spacingLeft=2;overflow=hidden;fontSize=11;" vertex="1" parent="hANg0IzOi3szDQPyARxN-16">
          <mxGeometry x="36" width="139" height="22" as="geometry">
            <mxRectangle width="139" height="22" as="alternateBounds" />
          </mxGeometry>
        </mxCell>
        <mxCell id="hANg0IzOi3szDQPyARxN-19" value="ROLE" style="shape=table;startSize=25;container=1;collapsible=0;childLayout=tableLayout;fixedRows=1;rowLines=1;fontStyle=1;align=center;resizeLast=1;" vertex="1" parent="WIyWlLk6GJQsqaUBKTNV-1">
          <mxGeometry x="137" y="380" width="100" height="69" as="geometry" />
        </mxCell>
        <mxCell id="hANg0IzOi3szDQPyARxN-20" style="shape=tableRow;horizontal=0;startSize=0;swimlaneHead=0;swimlaneBody=0;fillColor=none;collapsible=0;dropTarget=0;points=[[0,0.5],[1,0.5]];portConstraint=eastwest;top=0;left=0;right=0;bottom=0;" vertex="1" parent="hANg0IzOi3szDQPyARxN-19">
          <mxGeometry y="25" width="100" height="22" as="geometry" />
        </mxCell>
        <mxCell id="hANg0IzOi3szDQPyARxN-21" value="Long" style="shape=partialRectangle;connectable=0;fillColor=none;top=0;left=0;bottom=0;right=0;align=left;spacingLeft=2;overflow=hidden;fontSize=11;" vertex="1" parent="hANg0IzOi3szDQPyARxN-20">
          <mxGeometry width="36" height="22" as="geometry">
            <mxRectangle width="36" height="22" as="alternateBounds" />
          </mxGeometry>
        </mxCell>
        <mxCell id="hANg0IzOi3szDQPyARxN-22" value="id" style="shape=partialRectangle;connectable=0;fillColor=none;top=0;left=0;bottom=0;right=0;align=left;spacingLeft=2;overflow=hidden;fontSize=11;" vertex="1" parent="hANg0IzOi3szDQPyARxN-20">
          <mxGeometry x="36" width="64" height="22" as="geometry">
            <mxRectangle width="64" height="22" as="alternateBounds" />
          </mxGeometry>
        </mxCell>
        <mxCell id="hANg0IzOi3szDQPyARxN-23" style="shape=tableRow;horizontal=0;startSize=0;swimlaneHead=0;swimlaneBody=0;fillColor=none;collapsible=0;dropTarget=0;points=[[0,0.5],[1,0.5]];portConstraint=eastwest;top=0;left=0;right=0;bottom=0;" vertex="1" parent="hANg0IzOi3szDQPyARxN-19">
          <mxGeometry y="47" width="100" height="22" as="geometry" />
        </mxCell>
        <mxCell id="hANg0IzOi3szDQPyARxN-24" value="String" style="shape=partialRectangle;connectable=0;fillColor=none;top=0;left=0;bottom=0;right=0;align=left;spacingLeft=2;overflow=hidden;fontSize=11;" vertex="1" parent="hANg0IzOi3szDQPyARxN-23">
          <mxGeometry width="36" height="22" as="geometry">
            <mxRectangle width="36" height="22" as="alternateBounds" />
          </mxGeometry>
        </mxCell>
        <mxCell id="hANg0IzOi3szDQPyARxN-25" value="name" style="shape=partialRectangle;connectable=0;fillColor=none;top=0;left=0;bottom=0;right=0;align=left;spacingLeft=2;overflow=hidden;fontSize=11;" vertex="1" parent="hANg0IzOi3szDQPyARxN-23">
          <mxGeometry x="36" width="64" height="22" as="geometry">
            <mxRectangle width="64" height="22" as="alternateBounds" />
          </mxGeometry>
        </mxCell>
        <mxCell id="hANg0IzOi3szDQPyARxN-26" value="ADDRESS" style="shape=table;startSize=25;container=1;collapsible=0;childLayout=tableLayout;fixedRows=1;rowLines=1;fontStyle=1;align=center;resizeLast=1;" vertex="1" parent="WIyWlLk6GJQsqaUBKTNV-1">
          <mxGeometry x="337" y="336" width="107" height="157" as="geometry" />
        </mxCell>
        <mxCell id="hANg0IzOi3szDQPyARxN-27" style="shape=tableRow;horizontal=0;startSize=0;swimlaneHead=0;swimlaneBody=0;fillColor=none;collapsible=0;dropTarget=0;points=[[0,0.5],[1,0.5]];portConstraint=eastwest;top=0;left=0;right=0;bottom=0;" vertex="1" parent="hANg0IzOi3szDQPyARxN-26">
          <mxGeometry y="25" width="107" height="22" as="geometry" />
        </mxCell>
        <mxCell id="hANg0IzOi3szDQPyARxN-28" value="Long" style="shape=partialRectangle;connectable=0;fillColor=none;top=0;left=0;bottom=0;right=0;align=left;spacingLeft=2;overflow=hidden;fontSize=11;" vertex="1" parent="hANg0IzOi3szDQPyARxN-27">
          <mxGeometry width="36" height="22" as="geometry">
            <mxRectangle width="36" height="22" as="alternateBounds" />
          </mxGeometry>
        </mxCell>
        <mxCell id="hANg0IzOi3szDQPyARxN-29" value="id" style="shape=partialRectangle;connectable=0;fillColor=none;top=0;left=0;bottom=0;right=0;align=left;spacingLeft=2;overflow=hidden;fontSize=11;" vertex="1" parent="hANg0IzOi3szDQPyARxN-27">
          <mxGeometry x="36" width="71" height="22" as="geometry">
            <mxRectangle width="71" height="22" as="alternateBounds" />
          </mxGeometry>
        </mxCell>
        <mxCell id="hANg0IzOi3szDQPyARxN-30" style="shape=tableRow;horizontal=0;startSize=0;swimlaneHead=0;swimlaneBody=0;fillColor=none;collapsible=0;dropTarget=0;points=[[0,0.5],[1,0.5]];portConstraint=eastwest;top=0;left=0;right=0;bottom=0;" vertex="1" parent="hANg0IzOi3szDQPyARxN-26">
          <mxGeometry y="47" width="107" height="22" as="geometry" />
        </mxCell>
        <mxCell id="hANg0IzOi3szDQPyARxN-31" value="String" style="shape=partialRectangle;connectable=0;fillColor=none;top=0;left=0;bottom=0;right=0;align=left;spacingLeft=2;overflow=hidden;fontSize=11;" vertex="1" parent="hANg0IzOi3szDQPyARxN-30">
          <mxGeometry width="36" height="22" as="geometry">
            <mxRectangle width="36" height="22" as="alternateBounds" />
          </mxGeometry>
        </mxCell>
        <mxCell id="hANg0IzOi3szDQPyARxN-32" value="street" style="shape=partialRectangle;connectable=0;fillColor=none;top=0;left=0;bottom=0;right=0;align=left;spacingLeft=2;overflow=hidden;fontSize=11;" vertex="1" parent="hANg0IzOi3szDQPyARxN-30">
          <mxGeometry x="36" width="71" height="22" as="geometry">
            <mxRectangle width="71" height="22" as="alternateBounds" />
          </mxGeometry>
        </mxCell>
        <mxCell id="hANg0IzOi3szDQPyARxN-33" style="shape=tableRow;horizontal=0;startSize=0;swimlaneHead=0;swimlaneBody=0;fillColor=none;collapsible=0;dropTarget=0;points=[[0,0.5],[1,0.5]];portConstraint=eastwest;top=0;left=0;right=0;bottom=0;" vertex="1" parent="hANg0IzOi3szDQPyARxN-26">
          <mxGeometry y="69" width="107" height="22" as="geometry" />
        </mxCell>
        <mxCell id="hANg0IzOi3szDQPyARxN-34" value="String" style="shape=partialRectangle;connectable=0;fillColor=none;top=0;left=0;bottom=0;right=0;align=left;spacingLeft=2;overflow=hidden;fontSize=11;" vertex="1" parent="hANg0IzOi3szDQPyARxN-33">
          <mxGeometry width="36" height="22" as="geometry">
            <mxRectangle width="36" height="22" as="alternateBounds" />
          </mxGeometry>
        </mxCell>
        <mxCell id="hANg0IzOi3szDQPyARxN-35" value="city" style="shape=partialRectangle;connectable=0;fillColor=none;top=0;left=0;bottom=0;right=0;align=left;spacingLeft=2;overflow=hidden;fontSize=11;" vertex="1" parent="hANg0IzOi3szDQPyARxN-33">
          <mxGeometry x="36" width="71" height="22" as="geometry">
            <mxRectangle width="71" height="22" as="alternateBounds" />
          </mxGeometry>
        </mxCell>
        <mxCell id="hANg0IzOi3szDQPyARxN-36" style="shape=tableRow;horizontal=0;startSize=0;swimlaneHead=0;swimlaneBody=0;fillColor=none;collapsible=0;dropTarget=0;points=[[0,0.5],[1,0.5]];portConstraint=eastwest;top=0;left=0;right=0;bottom=0;" vertex="1" parent="hANg0IzOi3szDQPyARxN-26">
          <mxGeometry y="91" width="107" height="22" as="geometry" />
        </mxCell>
        <mxCell id="hANg0IzOi3szDQPyARxN-37" value="String" style="shape=partialRectangle;connectable=0;fillColor=none;top=0;left=0;bottom=0;right=0;align=left;spacingLeft=2;overflow=hidden;fontSize=11;" vertex="1" parent="hANg0IzOi3szDQPyARxN-36">
          <mxGeometry width="36" height="22" as="geometry">
            <mxRectangle width="36" height="22" as="alternateBounds" />
          </mxGeometry>
        </mxCell>
        <mxCell id="hANg0IzOi3szDQPyARxN-38" value="state" style="shape=partialRectangle;connectable=0;fillColor=none;top=0;left=0;bottom=0;right=0;align=left;spacingLeft=2;overflow=hidden;fontSize=11;" vertex="1" parent="hANg0IzOi3szDQPyARxN-36">
          <mxGeometry x="36" width="71" height="22" as="geometry">
            <mxRectangle width="71" height="22" as="alternateBounds" />
          </mxGeometry>
        </mxCell>
        <mxCell id="hANg0IzOi3szDQPyARxN-39" style="shape=tableRow;horizontal=0;startSize=0;swimlaneHead=0;swimlaneBody=0;fillColor=none;collapsible=0;dropTarget=0;points=[[0,0.5],[1,0.5]];portConstraint=eastwest;top=0;left=0;right=0;bottom=0;" vertex="1" parent="hANg0IzOi3szDQPyARxN-26">
          <mxGeometry y="113" width="107" height="22" as="geometry" />
        </mxCell>
        <mxCell id="hANg0IzOi3szDQPyARxN-40" value="String" style="shape=partialRectangle;connectable=0;fillColor=none;top=0;left=0;bottom=0;right=0;align=left;spacingLeft=2;overflow=hidden;fontSize=11;" vertex="1" parent="hANg0IzOi3szDQPyARxN-39">
          <mxGeometry width="36" height="22" as="geometry">
            <mxRectangle width="36" height="22" as="alternateBounds" />
          </mxGeometry>
        </mxCell>
        <mxCell id="hANg0IzOi3szDQPyARxN-41" value="zipcode" style="shape=partialRectangle;connectable=0;fillColor=none;top=0;left=0;bottom=0;right=0;align=left;spacingLeft=2;overflow=hidden;fontSize=11;" vertex="1" parent="hANg0IzOi3szDQPyARxN-39">
          <mxGeometry x="36" width="71" height="22" as="geometry">
            <mxRectangle width="71" height="22" as="alternateBounds" />
          </mxGeometry>
        </mxCell>
        <mxCell id="hANg0IzOi3szDQPyARxN-42" style="shape=tableRow;horizontal=0;startSize=0;swimlaneHead=0;swimlaneBody=0;fillColor=none;collapsible=0;dropTarget=0;points=[[0,0.5],[1,0.5]];portConstraint=eastwest;top=0;left=0;right=0;bottom=0;" vertex="1" parent="hANg0IzOi3szDQPyARxN-26">
          <mxGeometry y="135" width="107" height="22" as="geometry" />
        </mxCell>
        <mxCell id="hANg0IzOi3szDQPyARxN-43" value="String" style="shape=partialRectangle;connectable=0;fillColor=none;top=0;left=0;bottom=0;right=0;align=left;spacingLeft=2;overflow=hidden;fontSize=11;" vertex="1" parent="hANg0IzOi3szDQPyARxN-42">
          <mxGeometry width="36" height="22" as="geometry">
            <mxRectangle width="36" height="22" as="alternateBounds" />
          </mxGeometry>
        </mxCell>
        <mxCell id="hANg0IzOi3szDQPyARxN-44" value="country" style="shape=partialRectangle;connectable=0;fillColor=none;top=0;left=0;bottom=0;right=0;align=left;spacingLeft=2;overflow=hidden;fontSize=11;" vertex="1" parent="hANg0IzOi3szDQPyARxN-42">
          <mxGeometry x="36" width="71" height="22" as="geometry">
            <mxRectangle width="71" height="22" as="alternateBounds" />
          </mxGeometry>
        </mxCell>
        <mxCell id="hANg0IzOi3szDQPyARxN-45" value="TOKEN" style="shape=table;startSize=25;container=1;collapsible=0;childLayout=tableLayout;fixedRows=1;rowLines=1;fontStyle=1;align=center;resizeLast=1;" vertex="1" parent="WIyWlLk6GJQsqaUBKTNV-1">
          <mxGeometry x="544" y="358" width="121" height="113" as="geometry" />
        </mxCell>
        <mxCell id="hANg0IzOi3szDQPyARxN-46" style="shape=tableRow;horizontal=0;startSize=0;swimlaneHead=0;swimlaneBody=0;fillColor=none;collapsible=0;dropTarget=0;points=[[0,0.5],[1,0.5]];portConstraint=eastwest;top=0;left=0;right=0;bottom=0;" vertex="1" parent="hANg0IzOi3szDQPyARxN-45">
          <mxGeometry y="25" width="121" height="22" as="geometry" />
        </mxCell>
        <mxCell id="hANg0IzOi3szDQPyARxN-47" value="Long" style="shape=partialRectangle;connectable=0;fillColor=none;top=0;left=0;bottom=0;right=0;align=left;spacingLeft=2;overflow=hidden;fontSize=11;" vertex="1" parent="hANg0IzOi3szDQPyARxN-46">
          <mxGeometry width="36" height="22" as="geometry">
            <mxRectangle width="36" height="22" as="alternateBounds" />
          </mxGeometry>
        </mxCell>
        <mxCell id="hANg0IzOi3szDQPyARxN-48" value="id" style="shape=partialRectangle;connectable=0;fillColor=none;top=0;left=0;bottom=0;right=0;align=left;spacingLeft=2;overflow=hidden;fontSize=11;" vertex="1" parent="hANg0IzOi3szDQPyARxN-46">
          <mxGeometry x="36" width="85" height="22" as="geometry">
            <mxRectangle width="85" height="22" as="alternateBounds" />
          </mxGeometry>
        </mxCell>
        <mxCell id="hANg0IzOi3szDQPyARxN-49" style="shape=tableRow;horizontal=0;startSize=0;swimlaneHead=0;swimlaneBody=0;fillColor=none;collapsible=0;dropTarget=0;points=[[0,0.5],[1,0.5]];portConstraint=eastwest;top=0;left=0;right=0;bottom=0;" vertex="1" parent="hANg0IzOi3szDQPyARxN-45">
          <mxGeometry y="47" width="121" height="22" as="geometry" />
        </mxCell>
        <mxCell id="hANg0IzOi3szDQPyARxN-50" value="String" style="shape=partialRectangle;connectable=0;fillColor=none;top=0;left=0;bottom=0;right=0;align=left;spacingLeft=2;overflow=hidden;fontSize=11;" vertex="1" parent="hANg0IzOi3szDQPyARxN-49">
          <mxGeometry width="36" height="22" as="geometry">
            <mxRectangle width="36" height="22" as="alternateBounds" />
          </mxGeometry>
        </mxCell>
        <mxCell id="hANg0IzOi3szDQPyARxN-51" value="tokenValue" style="shape=partialRectangle;connectable=0;fillColor=none;top=0;left=0;bottom=0;right=0;align=left;spacingLeft=2;overflow=hidden;fontSize=11;" vertex="1" parent="hANg0IzOi3szDQPyARxN-49">
          <mxGeometry x="36" width="85" height="22" as="geometry">
            <mxRectangle width="85" height="22" as="alternateBounds" />
          </mxGeometry>
        </mxCell>
        <mxCell id="hANg0IzOi3szDQPyARxN-52" style="shape=tableRow;horizontal=0;startSize=0;swimlaneHead=0;swimlaneBody=0;fillColor=none;collapsible=0;dropTarget=0;points=[[0,0.5],[1,0.5]];portConstraint=eastwest;top=0;left=0;right=0;bottom=0;" vertex="1" parent="hANg0IzOi3szDQPyARxN-45">
          <mxGeometry y="69" width="121" height="22" as="geometry" />
        </mxCell>
        <mxCell id="hANg0IzOi3szDQPyARxN-53" value="Date" style="shape=partialRectangle;connectable=0;fillColor=none;top=0;left=0;bottom=0;right=0;align=left;spacingLeft=2;overflow=hidden;fontSize=11;" vertex="1" parent="hANg0IzOi3szDQPyARxN-52">
          <mxGeometry width="36" height="22" as="geometry">
            <mxRectangle width="36" height="22" as="alternateBounds" />
          </mxGeometry>
        </mxCell>
        <mxCell id="hANg0IzOi3szDQPyARxN-54" value="expiryDate" style="shape=partialRectangle;connectable=0;fillColor=none;top=0;left=0;bottom=0;right=0;align=left;spacingLeft=2;overflow=hidden;fontSize=11;" vertex="1" parent="hANg0IzOi3szDQPyARxN-52">
          <mxGeometry x="36" width="85" height="22" as="geometry">
            <mxRectangle width="85" height="22" as="alternateBounds" />
          </mxGeometry>
        </mxCell>
        <mxCell id="hANg0IzOi3szDQPyARxN-55" style="shape=tableRow;horizontal=0;startSize=0;swimlaneHead=0;swimlaneBody=0;fillColor=none;collapsible=0;dropTarget=0;points=[[0,0.5],[1,0.5]];portConstraint=eastwest;top=0;left=0;right=0;bottom=0;" vertex="1" parent="hANg0IzOi3szDQPyARxN-45">
          <mxGeometry y="91" width="121" height="22" as="geometry" />
        </mxCell>
        <mxCell id="hANg0IzOi3szDQPyARxN-56" value="Long" style="shape=partialRectangle;connectable=0;fillColor=none;top=0;left=0;bottom=0;right=0;align=left;spacingLeft=2;overflow=hidden;fontSize=11;" vertex="1" parent="hANg0IzOi3szDQPyARxN-55">
          <mxGeometry width="36" height="22" as="geometry">
            <mxRectangle width="36" height="22" as="alternateBounds" />
          </mxGeometry>
        </mxCell>
        <mxCell id="hANg0IzOi3szDQPyARxN-57" value="userId" style="shape=partialRectangle;connectable=0;fillColor=none;top=0;left=0;bottom=0;right=0;align=left;spacingLeft=2;overflow=hidden;fontSize=11;" vertex="1" parent="hANg0IzOi3szDQPyARxN-55">
          <mxGeometry x="36" width="85" height="22" as="geometry">
            <mxRectangle width="85" height="22" as="alternateBounds" />
          </mxGeometry>
        </mxCell>
        <mxCell id="hANg0IzOi3szDQPyARxN-58" value="has" style="curved=1;startArrow=ERmandOne;startSize=10;;endArrow=ERmany;endSize=10;;exitX=-0.002132437569754464;exitY=0.7841287312490718;entryX=0.5;entryY=0;rounded=0;" edge="1" parent="WIyWlLk6GJQsqaUBKTNV-1" source="hANg0IzOi3szDQPyARxN-0" target="hANg0IzOi3szDQPyARxN-19">
          <mxGeometry relative="1" as="geometry">
            <Array as="points">
              <mxPoint x="187" y="286" />
            </Array>
          </mxGeometry>
        </mxCell>
        <mxCell id="hANg0IzOi3szDQPyARxN-59" value="has" style="curved=1;startArrow=ERmandOne;startSize=10;;endArrow=ERmandOne;endSize=10;;exitX=0.3250998796735491;exitY=1;entryX=0.49870307423244015;entryY=0;rounded=0;" edge="1" parent="WIyWlLk6GJQsqaUBKTNV-1" source="hANg0IzOi3szDQPyARxN-0" target="hANg0IzOi3szDQPyARxN-26">
          <mxGeometry relative="1" as="geometry">
            <Array as="points">
              <mxPoint x="390" y="286" />
            </Array>
          </mxGeometry>
        </mxCell>
        <mxCell id="hANg0IzOi3szDQPyARxN-60" value="has" style="curved=1;startArrow=ERmandOne;startSize=10;;endArrow=ERmany;endSize=10;;exitX=0.8715655636787415;exitY=1;entryX=0.2919023943341468;entryY=0;rounded=0;" edge="1" parent="WIyWlLk6GJQsqaUBKTNV-1" source="hANg0IzOi3szDQPyARxN-0" target="hANg0IzOi3szDQPyARxN-45">
          <mxGeometry relative="1" as="geometry">
            <Array as="points">
              <mxPoint x="547" y="286" />
            </Array>
          </mxGeometry>
        </mxCell>
        <mxCell id="hANg0IzOi3szDQPyARxN-61" value="belongs_to" style="curved=1;startArrow=ERmany;startSize=10;;endArrow=ERmandOne;endSize=10;;exitX=0.6785429647146177;exitY=0;entryX=1.0005464826311383;entryY=0.8365972609052589;rounded=0;" edge="1" parent="WIyWlLk6GJQsqaUBKTNV-1" source="hANg0IzOi3szDQPyARxN-45" target="hANg0IzOi3szDQPyARxN-0">
          <mxGeometry relative="1" as="geometry">
            <Array as="points">
              <mxPoint x="654" y="286" />
            </Array>
          </mxGeometry>
        </mxCell>
      </root>
    </mxGraphModel>
  </diagram>
</mxfile>
